<?xml version="1.0" encoding="utf-8"?>
<!-- Generator: Adobe Illustrator 24.1.1, SVG Export Plug-In . SVG Version: 6.00 Build 0)  -->
<svg version="1.1" id="Layer_1" xmlns="http://www.w3.org/2000/svg" xmlns:xlink="http://www.w3.org/1999/xlink" x="0px" y="0px"
	 viewBox="0 0 512 512" style="enable-background:new 0 0 512 512;" xml:space="preserve">
<g>
	<path d="M227.5,320.2L504.6,43c9.8-9.8,9.8-25.8,0-35.6c-9.8-9.8-25.8-9.8-35.6,0L191.8,284.5c-9.8,9.8-9.8,25.8,0,35.6
		C201.7,330,217.6,330,227.5,320.2"/>
	<path d="M463.1,16.6L299.3,470.2l23.7,8.6l-22.9-10.5l10.3,4.7v-11.3c-4.3,0-8.4,2.5-10.3,6.6l10.3,4.7v-11.3V473l4.7-10.3l-4.7-1
		V473l4.7-10.3l0,0l-4.7,10.3l10.3-4.7c-1.1-2.5-3.1-4.5-5.6-5.6l-4.7,10.3l10.3-4.7l-0.4-0.8l-88.2-176.4
		c-2.5-4.9-6.4-8.8-11.3-11.3L44.6,191.6l-0.8-0.4l-4.7,10.3h11.3c0-4.3-2.5-8.4-6.6-10.3l-4.7,10.3h11.3H39l10.4,4.8l1-4.8H39
		l10.4,4.8l0,0l-10.3-4.7l4.7,10.3c2.5-1.1,4.5-3.1,5.6-5.6l-10.3-4.7l4.7,10.3L33.3,189l8.6,23.7L495.4,48.9
		c13.1-4.7,19.9-19.2,15.1-32.3S491.3-3.2,478.2,1.5L24.7,165.3l-1.9,0.8c-8.5,3.9-15.3,10.7-19.2,19.2l0,0
		C1.2,190.5,0,196.1,0,201.6c0,14.8,8.5,28.9,22.8,35.5l10.5-22.9L22,236.7l168.9,84.4L275.3,490l22.5-11.3l-22.9,10.5
		c3.9,8.5,10.7,15.3,19.2,19.2l0,0c5.2,2.4,10.8,3.6,16.3,3.5c14.8,0,28.9-8.5,35.5-22.8l0.8-1.9L510.5,33.8
		c4.7-13.1-2.1-27.5-15.1-32.3C482.3-3.2,467.8,3.6,463.1,16.6L463.1,16.6z"/>
</g>
</svg>
